<svg xmlns="http://www.w3.org/2000/svg" width="91.741" height="91.742" viewBox="0 0 91.741 91.742"><defs><style>.a{fill:#40261c;}</style></defs><path class="a" d="M45.871,0H25.993a1.529,1.529,0,0,0-1.529,1.529v10.7H1.529A1.529,1.529,0,0,0,0,13.761V90.212a1.529,1.529,0,0,0,1.529,1.529H45.871A1.529,1.529,0,0,0,47.4,90.212V1.529A1.529,1.529,0,0,0,45.871,0ZM44.342,79.509H27.522V76.451H44.342ZM3.058,22.935H24.464V68.806H3.058Zm41.284-6.116H27.522V12.232H44.342ZM3.058,71.864H24.464v4.587H3.058Zm24.464,1.529V19.877H44.342V73.393ZM44.342,3.058V9.174H27.522V3.058ZM24.464,15.29v4.587H3.058V15.29ZM3.058,79.509H24.464v9.174H3.058Zm24.464,9.174V82.567H44.342v6.116Zm0,0"/><path class="a" d="M292.29,135.48,273.942,65.145a1.527,1.527,0,0,0-1.874-1.092L249.133,70.17a1.528,1.528,0,0,0-1.086,1.862L266.4,142.367a1.525,1.525,0,0,0,1.874,1.089l22.935-6.116A1.529,1.529,0,0,0,292.29,135.48ZM253.827,82.071l19.981-5.327.719,2.752-19.98,5.335Zm21.472.392,8.868,34.017-19.974,5.329L255.325,87.79Zm9.647,36.977,1.566,6-19.981,5.327-1.56-6ZM271.371,67.4l1.665,6.383-19.981,5.325-1.663-6.38Zm-2.4,72.7-1.665-6.383,19.981-5.328,1.663,6.38Zm0,0" transform="translate(-200.598 -51.769)"/><path class="a" d="M45.761,144H33.529A1.529,1.529,0,0,0,32,145.529v12.232a1.529,1.529,0,0,0,1.529,1.529H45.761a1.529,1.529,0,0,0,1.529-1.529V145.529A1.529,1.529,0,0,0,45.761,144Zm-1.529,12.232H35.058v-9.174h9.174Zm0,0" transform="translate(-25.884 -116.478)"/></svg>