<svg xmlns="http://www.w3.org/2000/svg" viewBox="0 0 503.4 85.14"><defs><style>.cls-1{fill:#fff;}</style></defs><g id="Calque_2" data-name="Calque 2"><g id="Calque_1-2" data-name="Calque 1"><path class="cls-1" d="M75.53,76.26H0V74.77A1.34,1.34,0,0,1,1.4,74c.9,0,1.81,0,2.78,0V45.52a22.26,22.26,0,0,0-.1-5,23.59,23.59,0,0,0-2.15-4.63c-.71-1.45-.27-2.18,1.32-2.18H16.54V32.8c0-3.62,0-7.24,0-10.86A4.18,4.18,0,0,0,16,19.53a12.35,12.35,0,0,1-2-8.4A.75.75,0,0,0,14,11c0-1,.41-1.44,1.44-1.44h3.45V8.65c0-2.36,0-4.72,0-7.07A1.62,1.62,0,0,1,19.62,0H43.71a1.3,1.3,0,0,1,.57,1.54c-.23.68-.8.7-1.4.7H21.19V9.48h3.5c0-1.08,0-2.1,0-3.11s.42-1.44,1.45-1.44H50c1,0,1.43.42,1.44,1.45s0,2.06,0,3.11h3.48V2.23c-1.54,0-3,0-4.51,0-.85,0-1.34-.54-1.16-1.32A3.07,3.07,0,0,1,49.81,0H56.5a1.64,1.64,0,0,1,.74,1.58c0,2.38,0,4.76,0,7.14v.81h3.45c1,0,1.42.4,1.44,1.44.08,4.38.08,4.38-1.84,8.28a6.68,6.68,0,0,0-.39.81,4.35,4.35,0,0,0-.3,1.27c0,3.84,0,7.69,0,11.53,0,.25,0,.49,0,.8H72.93c1.36,0,1.83.76,1.25,2s-1.31,2.61-1.93,3.93a3.33,3.33,0,0,0-.3,1.27q0,16.18,0,32.37c0,.25,0,.49,0,.79,1,0,2.06,0,3.07,0a1.07,1.07,0,0,1,1,1.45A3.53,3.53,0,0,1,75.53,76.26ZM18.85,21.62V52.2a4.4,4.4,0,0,1-.09,1,1,1,0,0,1-1.07.75,1,1,0,0,1-1.05-.76,3.29,3.29,0,0,1-.09-.88c0-1.07,0-2.13,0-3.23h-10V64h10c0-1.08,0-2.09,0-3.11s.44-1.3,1.2-1.27,1.1.48,1.1,1.46V74H28V55c0-1.63.25-1.88,1.91-1.88H46.33c1.5,0,1.79.29,1.79,1.78V74h9.09V21.62ZM59.61,64h10V49.06h-10ZM45.76,74V55.44h-6.6V74Zm-8.93,0V55.45H30.36V74ZM17,16.46c.37.77.73,1.43,1,2.13a1.12,1.12,0,0,0,1.23.77q18.81,0,37.62,0a2.17,2.17,0,0,0,.51,0,.68.68,0,0,0,.43-.21c.44-.85.85-1.71,1.31-2.66Zm42.77-4.63H16.35v2.28H59.78ZM6.54,66.31V74h10V66.31Zm63,7.68V66.33h-10V74Zm-63-32.7v5.43h10V41.29Zm53.08,5.44h10V41.3h-10ZM16.5,39V36h-12c.42.86.82,1.62,1.16,2.4a.82.82,0,0,0,.9.56c3,0,6,0,9.05,0Zm55-3H59.63v2.88a1,1,0,0,0,.2.06c3.26,0,6.52,0,9.78,0a.7.7,0,0,0,.54-.27C70.6,37.83,71,37,71.48,36ZM39.16,9.35h10c0-.51,0-1,0-1.45s-.15-.72-.71-.71c-2.89,0-5.78,0-8.68,0a6.2,6.2,0,0,0-.62.06Zm-2.34,0V7.2c-3.17,0-6.29,0-9.4,0-.15,0-.43.2-.44.33,0,.6,0,1.21,0,1.82Z"/><path class="cls-1" d="M26.91,29.06c0-.28,0-.47,0-.67A1.32,1.32,0,0,1,28.09,27a11,11,0,0,1,9.47,2l.51.39A11.29,11.29,0,0,1,42.74,27,12.63,12.63,0,0,1,48,27a1.27,1.27,0,0,1,1.14,1.34c0,.22,0,.44,0,.73H52c1,0,1.4.42,1.4,1.4V45.87c0,1-.38,1.34-1.35,1.34H24.08c-1,0-1.33-.38-1.33-1.35V30.45c0-1,.4-1.38,1.41-1.39ZM46.8,40.67V29.09a9.5,9.5,0,0,0-7.06,1.81A1.2,1.2,0,0,0,39.2,32c0,3.49,0,7,0,10.49,0,.2,0,.4.06.71A11.6,11.6,0,0,1,46.8,40.67ZM36.91,43V42c0-2.86-.17-5.72.05-8.55.16-2.06-.77-3-2.43-3.74a11.07,11.07,0,0,0-1.32-.49,7.09,7.09,0,0,0-3.9-.16V40.67A10.53,10.53,0,0,1,36.91,43ZM25,44.94H35.6c-.29-.24-.46-.41-.65-.54A8.16,8.16,0,0,0,28.82,43c-1.41.2-1.88-.18-1.88-1.61v-10H25ZM49.18,31.4v.85q0,4.65,0,9.3c0,1.13-.41,1.51-1.53,1.49a22,22,0,0,0-2.3,0,8.39,8.39,0,0,0-4.61,1.88H51.1V31.4Z"/><path class="cls-1" d="M99.33,35.37,94.64,13.78H94.5c.2,3,.31,5.27.31,6.85V35.37H92.26V10.71h4.17l4.18,20.11h.1l4.22-20.11h4.25V35.37H106.6v-15q0-1.72.24-6.6h-.14l-4.77,21.56Z"/><path class="cls-1" d="M129.58,26.7H116.52q.14,6.33,5.81,6.33a15.43,15.43,0,0,0,6.24-1.29v2.7a14.67,14.67,0,0,1-6.14,1.27,8.88,8.88,0,0,1-6.62-2.52,9.5,9.5,0,0,1-2.48-6.95,10.42,10.42,0,0,1,2.29-7.11,7.69,7.69,0,0,1,6.11-2.62,7.49,7.49,0,0,1,5.72,2.26,8.42,8.42,0,0,1,2.13,6Zm-13-2.5h9.67q0-5.14-4.59-5.14T116.59,24.2ZM119.52,14a34.42,34.42,0,0,0,2.94-5.08h3.7v.35a23.1,23.1,0,0,1-4.59,5.18h-2Z"/><path class="cls-1" d="M147,32.89h-.14a6.17,6.17,0,0,1-5.43,2.82,6.33,6.33,0,0,1-5.32-2.52,11.34,11.34,0,0,1-1.93-7c0-3,.64-5.4,1.94-7.09a6.82,6.82,0,0,1,10.74.16H147q-.21-2.17-.21-2.73V9.12h3.07V35.37h-2.48Zm-.14-6.06v-.69q0-3.83-1.17-5.46a4.3,4.3,0,0,0-3.74-1.62q-4.59,0-4.59,7.12c0,4.65,1.55,7,4.63,7a4.3,4.3,0,0,0,3.68-1.49A8.42,8.42,0,0,0,146.82,26.83Z"/><path class="cls-1" d="M161.69,19.28l-4.54-.36V16.85h7.61V33l5.94.34v2.07H155.88V33.3l5.81-.34Zm1.55-10.06c1.19,0,1.79.64,1.79,1.92a1.88,1.88,0,0,1-.53,1.46,1.84,1.84,0,0,1-1.26.48c-1.2,0-1.81-.64-1.81-1.94S162,9.22,163.24,9.22Z"/><path class="cls-1" d="M188.4,35.37l-.63-2.56h-.13A7.68,7.68,0,0,1,185,35.08a8.43,8.43,0,0,1-3.52.63,6.09,6.09,0,0,1-4.32-1.45,5.28,5.28,0,0,1-1.56-4.07q0-5.6,8.61-5.87l3.42-.12V23c0-2.66-1.37-4-4.11-4A13.64,13.64,0,0,0,178,20.44l-1.06-2.31a14.62,14.62,0,0,1,6.46-1.62q3.83,0,5.54,1.47c1.15,1,1.72,2.54,1.72,4.7V35.37Zm-.83-9.06-2.73.12a9.73,9.73,0,0,0-4.69,1,3.05,3.05,0,0,0-1.39,2.76q0,3,3.38,3a5.54,5.54,0,0,0,4-1.38A5,5,0,0,0,187.57,28Z"/><path class="cls-1" d="M211.24,32.84v2.33a17.75,17.75,0,0,1-4.25.54q-6.11,0-6.11-5.8V19.16h-4.5V17.57l4.5-.82,1.3-4.85H204v5h7.39v2.31H204V29.91q0,3.29,3.24,3.29A29.29,29.29,0,0,0,211.24,32.84Z"/><path class="cls-1" d="M229.73,35.37V23.44c0-2.92-1.33-4.38-4-4.38-3.46,0-5.18,2.23-5.18,6.71v9.6h-3.07V9.12h3.07v7.79l-.14,2.43h.17q1.74-2.84,5.67-2.83,6.57,0,6.56,6.76v12.1Z"/><path class="cls-1" d="M254,26.7H240.94q.13,6.33,5.8,6.33A15.39,15.39,0,0,0,253,31.74v2.7a14.61,14.61,0,0,1-6.14,1.27,8.86,8.86,0,0,1-6.61-2.52,9.46,9.46,0,0,1-2.48-6.95A10.47,10.47,0,0,1,240,19.13a7.72,7.72,0,0,1,6.12-2.62,7.47,7.47,0,0,1,5.71,2.26,8.42,8.42,0,0,1,2.14,6Zm-13-2.5h9.67q0-5.14-4.59-5.14T241,24.2Zm7.44-9.77h-2a23.83,23.83,0,0,1-4.59-5.18V8.9h3.7A35.5,35.5,0,0,0,248.44,14Z"/><path class="cls-1" d="M271.24,19.34h.13l.46-2.49h2.48V43.67h-3.07V35.76c0-.46.07-1.42.2-2.87h-.2a6.17,6.17,0,0,1-5.43,2.82,6.35,6.35,0,0,1-5.33-2.52,11.41,11.41,0,0,1-1.93-7,11.47,11.47,0,0,1,1.94-7.09,6.35,6.35,0,0,1,5.32-2.54A6.2,6.2,0,0,1,271.24,19.34Zm0,7.49v-.69q0-3.83-1.17-5.46a4.3,4.3,0,0,0-3.74-1.62q-4.59,0-4.59,7.12t4.62,7a4.34,4.34,0,0,0,3.69-1.49A8.42,8.42,0,0,0,271.24,26.83Z"/><path class="cls-1" d="M292.53,35.37l-.45-2.48h-.17a6.16,6.16,0,0,1-5.64,2.82q-6.6,0-6.59-6.77V16.85h3.07V28.78c0,2.92,1.32,4.38,4,4.38a4.76,4.76,0,0,0,4-1.56c.84-1,1.25-2.75,1.25-5.14V16.85H295V35.37Z"/><path class="cls-1" d="M316.2,26.7H303.14Q303.29,33,309,33a15.43,15.43,0,0,0,6.24-1.29v2.7a14.61,14.61,0,0,1-6.14,1.27,8.86,8.86,0,0,1-6.61-2.52A9.46,9.46,0,0,1,300,26.24a10.47,10.47,0,0,1,2.28-7.11,7.72,7.72,0,0,1,6.12-2.62,7.47,7.47,0,0,1,5.71,2.26,8.42,8.42,0,0,1,2.13,6Zm-13-2.5h9.67q0-5.14-4.59-5.14T303.21,24.2Z"/><path class="cls-1" d="M94.28,76.84V52.17h3.16V74h10.71v2.8Z"/><path class="cls-1" d="M126.19,76.84l-.63-2.57h-.13a7.68,7.68,0,0,1-2.67,2.27,8.42,8.42,0,0,1-3.52.64,6.06,6.06,0,0,1-4.31-1.46,5.26,5.26,0,0,1-1.56-4.06q0-5.61,8.6-5.87l3.43-.12V64.5c0-2.65-1.38-4-4.12-4a13.46,13.46,0,0,0-5.53,1.39l-1.07-2.32A14.65,14.65,0,0,1,121.14,58c2.56,0,4.4.49,5.55,1.47s1.71,2.55,1.71,4.71V76.84Zm-.83-9.06-2.73.11a9.85,9.85,0,0,0-4.69,1,3.07,3.07,0,0,0-1.39,2.76c0,2,1.13,3,3.38,3a5.59,5.59,0,0,0,4-1.38,5,5,0,0,0,1.47-3.87Z"/><path class="cls-1" d="M171.52,73.45v2.73a16.2,16.2,0,0,1-6,1c-3.47,0-6.13-1.11-8-3.31s-2.76-5.34-2.76-9.4q0-5.84,3-9.25a10.45,10.45,0,0,1,8.25-3.4,13.62,13.62,0,0,1,6.46,1.45l-1.32,2.63A11.26,11.26,0,0,0,166,54.58a7,7,0,0,0-5.79,2.68,11.2,11.2,0,0,0-2.16,7.24c0,3.23.68,5.69,2,7.39A7.14,7.14,0,0,0,166,74.42,20.29,20.29,0,0,0,171.52,73.45Z"/><path class="cls-1" d="M188.26,76.84V64.91q0-4.39-4-4.39c-3.46,0-5.18,2.24-5.18,6.72v9.6H176V50.58h3.07v7.8l-.14,2.43h.17A6.14,6.14,0,0,1,184.77,58q6.55,0,6.56,6.77v12.1Z"/><path class="cls-1" d="M209.13,76.84l-.62-2.57h-.14a7.57,7.57,0,0,1-2.66,2.27,8.47,8.47,0,0,1-3.53.64,6.08,6.08,0,0,1-4.31-1.46,5.26,5.26,0,0,1-1.56-4.06q0-5.61,8.6-5.87l3.43-.12V64.5q0-4-4.12-4a13.46,13.46,0,0,0-5.53,1.39l-1.06-2.32A14.59,14.59,0,0,1,204.09,58q3.82,0,5.54,1.47t1.71,4.71V76.84Zm-.82-9.06-2.74.11a9.89,9.89,0,0,0-4.69,1,3.07,3.07,0,0,0-1.38,2.76c0,2,1.12,3,3.37,3a5.55,5.55,0,0,0,4-1.38,5.06,5.06,0,0,0,1.48-3.87Z"/><path class="cls-1" d="M220.5,74.49h-.2c.14,1.45.2,2.36.2,2.74v7.91h-3.07V58.31h2.48l.46,2.5h.13A6.1,6.1,0,0,1,225.94,58a6.34,6.34,0,0,1,5.32,2.53,11.33,11.33,0,0,1,1.93,7,11.44,11.44,0,0,1-1.94,7.1,6.83,6.83,0,0,1-10.75-.15Zm0-7.64v.69q0,3.83,1.18,5.46a4.29,4.29,0,0,0,3.73,1.63c3.06,0,4.59-2.38,4.59-7.12s-1.54-7-4.62-7A4.34,4.34,0,0,0,221.69,62,8.53,8.53,0,0,0,220.5,66.85Z"/><path class="cls-1" d="M254,68.17H240.94q.13,6.31,5.8,6.32A15.55,15.55,0,0,0,253,73.21v2.7a14.76,14.76,0,0,1-6.14,1.27,8.86,8.86,0,0,1-6.61-2.53,9.43,9.43,0,0,1-2.48-6.94A10.47,10.47,0,0,1,240,60.6,7.73,7.73,0,0,1,246.15,58a7.48,7.48,0,0,1,5.71,2.27,8.41,8.41,0,0,1,2.14,6Zm-13-2.5h9.67q0-5.14-4.59-5.15T241,65.67Z"/><path class="cls-1" d="M265.22,53l-4.53-.36V50.58h7.61V74.42l5.94.34v2.08H259.41V74.76l5.81-.34Z"/><path class="cls-1" d="M286,53l-4.52-.36V50.58H289V74.42l5.94.34v2.08H280.15V74.76l5.8-.34Z"/><path class="cls-1" d="M316.2,68.17H303.14q.15,6.31,5.81,6.32a15.59,15.59,0,0,0,6.24-1.28v2.7a14.76,14.76,0,0,1-6.14,1.27,8.86,8.86,0,0,1-6.61-2.53A9.43,9.43,0,0,1,300,67.71a10.47,10.47,0,0,1,2.28-7.11A7.73,7.73,0,0,1,308.36,58a7.48,7.48,0,0,1,5.71,2.27,8.4,8.4,0,0,1,2.13,6Zm-13-2.5h9.67q0-5.14-4.59-5.15T303.21,65.67Z"/><path class="cls-1" d="M323.26,69V66.16h11.12V69Z"/><path class="cls-1" d="M358.15,73.45v2.73a16.24,16.24,0,0,1-6,1c-3.48,0-6.14-1.11-8-3.31s-2.77-5.34-2.77-9.4q0-5.84,3-9.25a10.45,10.45,0,0,1,8.25-3.4,13.59,13.59,0,0,1,6.46,1.45l-1.31,2.63a11.3,11.3,0,0,0-5.15-1.32,7,7,0,0,0-5.79,2.68,11.25,11.25,0,0,0-2.16,7.24q0,4.84,2,7.39a7.12,7.12,0,0,0,5.92,2.53A20.41,20.41,0,0,0,358.15,73.45Z"/><path class="cls-1" d="M375.48,76.84,375,74.36h-.17a6.16,6.16,0,0,1-5.63,2.82q-6.6,0-6.6-6.77V58.31h3.07V70.24q0,4.4,4,4.39a4.79,4.79,0,0,0,4-1.56c.83-1,1.25-2.76,1.25-5.14V58.31H378V76.84Z"/><path class="cls-1" d="M398.52,58.73l-.82,2.8a11.32,11.32,0,0,0-3.78-.76,5.61,5.61,0,0,0-4.25,1.57,6.29,6.29,0,0,0-1.49,4.51v10h-3.07V58.31h2.5L388,61.7h.13a8.65,8.65,0,0,1,2.75-2.87,7.1,7.1,0,0,1,3.62-.86A11.77,11.77,0,0,1,398.52,58.73Z"/><path class="cls-1" d="M419.26,58.73l-.83,2.8a11.23,11.23,0,0,0-3.78-.76,5.61,5.61,0,0,0-4.24,1.57,6.25,6.25,0,0,0-1.49,4.51v10h-3.07V58.31h2.49l.38,3.39h.13a8.55,8.55,0,0,1,2.75-2.87,7.07,7.07,0,0,1,3.61-.86A11.78,11.78,0,0,1,419.26,58.73Z"/><path class="cls-1" d="M440.62,68.17H427.56q.13,6.31,5.81,6.32a15.59,15.59,0,0,0,6.24-1.28v2.7a14.83,14.83,0,0,1-6.14,1.27,8.88,8.88,0,0,1-6.62-2.53,9.47,9.47,0,0,1-2.48-6.94,10.42,10.42,0,0,1,2.29-7.11A7.69,7.69,0,0,1,432.77,58a7.5,7.5,0,0,1,5.72,2.27,8.4,8.4,0,0,1,2.13,6Zm-13-2.5h9.67q0-5.14-4.59-5.15T427.63,65.67Z"/><path class="cls-1" d="M458,76.84l-.63-2.57h-.13a7.68,7.68,0,0,1-2.67,2.27,8.47,8.47,0,0,1-3.53.64,6.08,6.08,0,0,1-4.31-1.46,5.26,5.26,0,0,1-1.56-4.06q0-5.61,8.61-5.87l3.42-.12V64.5q0-4-4.11-4a13.5,13.5,0,0,0-5.54,1.39l-1.06-2.32A14.62,14.62,0,0,1,452.92,58q3.82,0,5.54,1.47t1.71,4.71V76.84Zm-.83-9.06-2.74.11a9.92,9.92,0,0,0-4.69,1,3.07,3.07,0,0,0-1.38,2.76c0,2,1.13,3,3.38,3a5.54,5.54,0,0,0,4-1.38,5,5,0,0,0,1.48-3.87Z"/><path class="cls-1" d="M479.16,76.84l-.46-2.48h-.17a6.16,6.16,0,0,1-5.63,2.82q-6.6,0-6.6-6.77V58.31h3.07V70.24q0,4.4,4,4.39a4.79,4.79,0,0,0,4-1.56c.83-1,1.25-2.76,1.25-5.14V58.31h3.07V76.84Z"/><path class="cls-1" d="M492.94,67.34l-6.63-9h3.49l4.9,6.92,4.91-6.92h3.49l-6.67,9,7,9.5h-3.47l-5.23-7.36-5.25,7.36H486Z"/></g></g></svg>