<svg id="book_1_" data-name="book (1)" xmlns="http://www.w3.org/2000/svg" width="81.1" height="81.1" viewBox="0 0 81.1 81.1">
  <path id="Tracé_4" data-name="Tracé 4" d="M11.758,53H6.352a1.352,1.352,0,1,0,0,2.7h5.407a1.352,1.352,0,1,0,0-2.7Z" transform="translate(1.758 18.638)" fill="#40261c"/>
  <path id="Tracé_5" data-name="Tracé 5" d="M14.352,10.7h32.44a1.277,1.277,0,0,0,1.352-1.352A1.277,1.277,0,0,0,46.792,8H14.352A1.277,1.277,0,0,0,13,9.352,1.277,1.277,0,0,0,14.352,10.7Z" transform="translate(4.572 2.813)" fill="#40261c"/>
  <path id="Tracé_6" data-name="Tracé 6" d="M18.407,14H14.352A1.277,1.277,0,0,0,13,15.352,1.277,1.277,0,0,0,14.352,16.7h4.055a1.277,1.277,0,0,0,1.352-1.352A1.277,1.277,0,0,0,18.407,14Z" transform="translate(4.572 4.923)" fill="#40261c"/>
  <path id="Tracé_7" data-name="Tracé 7" d="M44.33,14H21.352A1.277,1.277,0,0,0,20,15.352,1.277,1.277,0,0,0,21.352,16.7H44.33a1.277,1.277,0,0,0,1.352-1.352A1.277,1.277,0,0,0,44.33,14Z" transform="translate(7.033 4.923)" fill="#40261c"/>
  <path id="Tracé_8" data-name="Tracé 8" d="M62.177,37.982V5.407A5.423,5.423,0,0,0,56.77,0H8.11A8.134,8.134,0,0,0,0,8.11V72.99A8.134,8.134,0,0,0,8.11,81.1H59.473a21.645,21.645,0,0,0,2.7-43.118ZM10.813,2.7H56.77a2.711,2.711,0,0,1,2.7,2.7v32.44A21.575,21.575,0,0,0,37.847,59.338a24.878,24.878,0,0,0,.676,5.542H10.813ZM2.7,8.11A5.423,5.423,0,0,1,8.11,2.7V64.88A7.909,7.909,0,0,0,2.7,66.907ZM8.11,78.4a5.407,5.407,0,1,1,0-10.813H39.469a19.311,19.311,0,0,0,2.163,4.055H18.923a1.352,1.352,0,0,0,0,2.7H43.794A19.586,19.586,0,0,0,49.065,78.4Zm51.363,0A18.923,18.923,0,1,1,78.4,59.473,18.979,18.979,0,0,1,59.473,78.4Z" fill="#40261c"/>
  <path id="Tracé_9" data-name="Tracé 9" d="M54.912,49.22h-2.7V37.055A3.983,3.983,0,0,0,48.154,33h-2.7A3.983,3.983,0,0,0,41.4,37.055V49.22h-2.7a2.67,2.67,0,0,0-2.433,1.622,2.96,2.96,0,0,0,.405,2.974l8.11,9.326a2.862,2.862,0,0,0,4.19,0l8.11-9.326a2.683,2.683,0,0,0,.405-2.974,3.029,3.029,0,0,0-2.568-1.622ZM46.8,61.385l-8.11-9.462h4.055A1.277,1.277,0,0,0,44.1,50.572V37.055A1.277,1.277,0,0,1,45.451,35.7h2.7a1.277,1.277,0,0,1,1.352,1.352V50.572a1.277,1.277,0,0,0,1.352,1.352h4.055Z" transform="translate(12.671 11.605)" fill="#40261c"/>
</svg>
